<svg width="344" height="327" xmlns="http://www.w3.org/2000/svg"><g fill="none" fill-rule="evenodd"><path fill="#000" d="M93.858 247.163H71.394v-17.79H60.636v43.748h10.758V256.09h22.464v17.03h10.76v-43.746h-10.76zM206.581 256.957h10.394v5.22c-2.168 1.651-5.42 3.043-10.167 3.098-8.836.1-14.877-6.447-14.877-14.204 0-8.714 7.024-13.93 15.005-13.93 6.62 0 13.413 4.527 13.413 4.527l4.01-7.063s-6.877-6.326-17.8-6.326c-15.109 0-24.845 9.971-24.845 22.833 0 12.254 8.933 22.791 24.47 22.791 9.121 0 15.474-3.355 19.993-7.177v-17.939h-19.596v8.17ZM258.983 255.685h23.595v-8.56h-23.595v-9.19h25.369v-8.56h-36.058v43.746h37.402v-8.562h-26.713zM317.157 264.56v-8.875h23.595v-8.56h-23.595v-9.19h25.369v-8.56h-36.057v43.746h37.402v-8.562zM137.293 258.493l7.844-17.244 7.91 17.244h-15.754Zm3.101-29.119-20.627 43.747h10.872l2.661-5.85h23.772l2.683 5.85h11.028l-20.626-43.747h-9.763ZM24.652 237.366c5.74 0 10.203 2.468 13.352 5.636l6.598-5.728c-4.122-5.035-11.077-9.074-19.848-9.074C10.203 228.2.13 238.661.13 251.257c0 12.374 9.38 23.038 24.193 23.038 10.486 0 16.279-5.098 20.279-9.944l-6.985-6.36c-2.172 2.78-6.152 6.915-13.46 6.915-7.85 0-13.513-6.327-13.418-13.62.104-8.002 6.192-13.92 13.913-13.92"/><path d="M271.198 99.475c0 54.786-44.412 99.198-99.198 99.198-54.786 0-99.198-44.412-99.198-99.198C72.802 44.69 117.214.277 172 .277c54.786 0 99.198 44.412 99.198 99.198" fill="#FFF"/><path d="M188.559 84.313c-.71 1.505-2.275 2.294-3.467 1.697-1.155-.579-1.55-2.262-.9-3.754.663-1.525 2.26-2.264 3.467-1.696 1.205.567 1.608 2.248.9 3.753m-29.65 1.7c-1.192.598-2.76-.192-3.47-1.699-.71-1.507-.306-3.189.902-3.758 1.207-.568 2.806.172 3.47 1.7.65 1.493.256 3.177-.901 3.757m74.345 24.952a9.752 9.752 0 0 1-3.251-.563 12.184 12.184 0 0 0 1.059-4.973c0-4.94-2.943-9.205-7.165-11.142v-7.75a15.26 15.26 0 0 1-1.747.104c-8.355 0-15.13-6.774-15.13-15.129 0-1.748.315-3.418.862-4.979a4.463 4.463 0 0 0 3.769 1.326c1.982-.242 3.609-1.85 3.869-3.83a4.476 4.476 0 0 0-5.33-4.99c-1.622.316-2.957 1.568-3.401 3.16a4.439 4.439 0 0 0 .132 2.83 18.17 18.17 0 0 1-2.032.127c-8.777 0-16.094-6.157-17.926-14.382.98.097 2.036-.059 3.15-.779 1.545-1 2.582-2.65 2.54-4.49a5.178 5.178 0 0 0-6.068-4.98c-2.194.367-3.941 2.188-4.234 4.393a5.173 5.173 0 0 0 2.97 5.406 20.186 20.186 0 0 1-13.33 5.012 20.185 20.185 0 0 1-13.327-5.01 5.172 5.172 0 0 0 2.978-5.375c-.29-2.284-2.146-4.154-4.428-4.455a5.182 5.182 0 0 0-5.77 6.208 5.133 5.133 0 0 0 3.437 3.84c.746.237 1.47.3 2.155.23-1.832 8.225-9.15 14.382-17.926 14.382-.692 0-1.37-.053-2.041-.128a4.442 4.442 0 0 0 .132-2.829c-.445-1.592-1.78-2.844-3.402-3.16a4.477 4.477 0 0 0-5.33 4.99c.26 1.98 1.889 3.59 3.873 3.83a4.46 4.46 0 0 0 3.773-1.334 15.03 15.03 0 0 1 .863 4.987c0 8.355-6.774 15.13-15.13 15.13-.591 0-1.172-.039-1.746-.105v7.75c-4.223 1.937-7.164 6.201-7.164 11.142 0 1.77.38 3.452 1.058 4.973a9.752 9.752 0 0 1-3.251.563c-5.751 0-10.345-4.957-9.741-10.83.454-4.418 3.954-8.044 8.35-8.66a9.753 9.753 0 0 1 6.329 1.247l3.08-6.397c-6.876-1.425-12.043-7.515-12.043-14.813 0-8.356 6.773-15.13 15.128-15.13.259 0 .516.008.772.022l-.001-.005a.581.581 0 0 0 .43-.7h.003a18.347 18.347 0 0 1-2.214-11.053c.946-8.442 7.768-15.243 16.213-16.16 5.31-.579 10.223 1.111 13.904 4.215a.574.574 0 0 0 .938-.36c1.325-9.92 9.815-17.574 20.099-17.574 10.286 0 18.78 7.66 20.1 17.586.06.446.594.651.938.36 3.686-3.115 8.61-4.81 13.934-4.226 8.444.926 15.26 7.732 16.199 16.175a18.345 18.345 0 0 1-2.224 11.051l.01.003a.577.577 0 0 0 .408.688c.263-.014.527-.022.793-.022 8.356 0 15.13 6.774 15.13 15.13 0 7.298-5.17 13.388-12.043 14.813l3.079 6.397a9.742 9.742 0 0 1 4.99-1.345c5.189.028 9.565 4.277 9.737 9.462.184 5.56-4.27 10.126-9.79 10.126m-4.57-4.54-.002.031c-.158 2.224-.6 4.36-1.338 6.367a20.708 20.708 0 0 1-1.65 3.465c-.138.235-.285.467-.44.693-.923 1.364-2.107 2.584-3.527 3.467a9.633 9.633 0 0 1-.73.413c-.494.272-1.01.501-1.541.69-.794.283-1.621.474-2.463.575-.56.068-1.127.094-1.693.083a12.442 12.442 0 0 1-3.356-.542 12.036 12.036 0 0 1-2.357-1.008c-.5-.28-.977-.598-1.43-.952-1.81-1.4-3.242-3.312-4.03-5.484a11.578 11.578 0 0 1-.73-3.374l-.048-.857-.004-.383-.005-.384-.02-1.537-.075-5.806c-.026-2.047-.023-4.746-.19-6.647-.63-7.769-4.272-15.186-9.97-20.425-2.85-2.61-6.15-4.732-9.741-6.164-3.59-1.438-7.478-2.043-11.358-2.08-3.88.037-7.741.642-11.33 2.08-3.59 1.432-6.892 3.554-9.742 6.164-5.696 5.24-9.34 12.656-9.97 20.425-.166 1.901-.163 4.6-.188 6.647l-.077 5.806-.02 1.537-.004.384-.004.383-.048.857a11.579 11.579 0 0 1-.731 3.374c-.787 2.172-2.22 4.084-4.03 5.484-.452.354-.93.672-1.43.952-.747.42-1.538.757-2.355 1.008a12.442 12.442 0 0 1-3.356.542 12.122 12.122 0 0 1-1.694-.083 11.382 11.382 0 0 1-2.463-.575 10.58 10.58 0 0 1-1.542-.69 9.633 9.633 0 0 1-.73-.413c-1.42-.883-2.602-2.103-3.527-3.467a12.848 12.848 0 0 1-.44-.693 20.708 20.708 0 0 1-1.65-3.465c-.736-2.007-1.178-4.143-1.337-6.367l-.001-.032c-.023-.324-.05-.647-.06-.975l.013.042-.001-.02a9.82 9.82 0 0 1 13.639-9.068 9.846 9.846 0 0 1 4.812 4.366 9.784 9.784 0 0 1 1.185 4.68 9.781 9.781 0 0 1-2.876 6.943 9.83 9.83 0 0 1-4.964 2.676 9.847 9.847 0 0 1-4.273-.07 9.675 9.675 0 0 1-2.585-1.033 9.906 9.906 0 0 1-1.315-.907c-.31-.253-.737.118-.545.47.452.821.868 1.463 1.222 1.968a10.252 10.252 0 0 0 4.328 3.522 9.874 9.874 0 0 0 1.977.633c1.127.235 2.288.278 3.423.151a9.852 9.852 0 0 0 4.392-1.728 10.25 10.25 0 0 0 1.045-.861 9.72 9.72 0 0 0 2.019-2.682 9.06 9.06 0 0 0 .517-1.238 8.865 8.865 0 0 0 .498-2.62l.022-.68-.01-.768-.018-1.537-.076-6.146c-.012-1.024-.033-2.04-.036-3.075a50.665 50.665 0 0 1 .078-3.179 34.323 34.323 0 0 1 3.119-12.458 34.293 34.293 0 0 1 4.274-6.854 34.533 34.533 0 0 1 3.29-3.572 32.165 32.165 0 0 1 3.765-3.08 33.593 33.593 0 0 1 4.173-2.49 34.732 34.732 0 0 1 15.637-3.707l.009.001h.019a34.732 34.732 0 0 1 15.637 3.705 33.726 33.726 0 0 1 4.174 2.491 32.155 32.155 0 0 1 3.763 3.08 34.28 34.28 0 0 1 3.291 3.572 34.417 34.417 0 0 1 4.274 6.854 34.365 34.365 0 0 1 3.12 12.458c.064 1.093.08 2.145.078 3.18-.003 1.033-.024 2.05-.036 3.074l-.076 6.146-.02 1.537-.01.767.024.68a8.877 8.877 0 0 0 .498 2.621c.14.425.314.84.517 1.238a9.736 9.736 0 0 0 2.526 3.128c.175.145.354.283.537.415a9.851 9.851 0 0 0 4.393 1.728c1.135.127 2.295.084 3.422-.15a9.854 9.854 0 0 0 1.977-.634c.852-.366 1.66-.855 2.392-1.449a10.164 10.164 0 0 0 1.935-2.073c.356-.505.772-1.147 1.223-1.969.193-.35-.236-.722-.545-.469a9.777 9.777 0 0 1-6.194 2.21 9.855 9.855 0 0 1-3.821-.772 9.819 9.819 0 0 1-3.755-2.8 9.769 9.769 0 0 1-2.242-6.246 9.772 9.772 0 0 1 2.876-6.944 9.835 9.835 0 0 1 3.12-2.104 9.855 9.855 0 0 1 7.643 0 9.821 9.821 0 0 1 5.998 9.047l-.001.021-.001.021.012-.042c-.011.328-.036.651-.06.975M172 80.05a4.517 4.517 0 1 1 0-9.034 4.517 4.517 0 0 1 0 9.034m0-79.772c-54.776 0-99.181 44.404-99.181 99.181 0 29.577 12.952 56.126 33.488 74.297 2.695-2.374 6.412-4.518 10.514-5.639 7.079-1.935 12.062-2.218 19.473-3.725-.297 11.865-.534 22.135-.653 27.371a98.144 98.144 0 0 0 9.816 3.278c-2.863-23.167-3.524-53.54-3.676-65.667l-.045-5.31v-3.303c.88.405 1.71 1.598 1.769 2.636l2.036 38.752c7.916-2.456 9.835-6.63 10.512-10.176.003.01.006.01.009-.006.72-3.554 4.035-6.368 7.802-6.368.947 0 1.7.098 2.412.295 2.219.616 4.662.691 5.512.691 1.758 0 4.45-.822 5.95-1.735 2.212-1.344 3.047-2.252 3.753-3.258-.002-.026-.008-.048-.023-.062-.012-.012-.036-.016-.063-.017-.815.59-1.476.95-2.028 1.278-2.07 1.232-4.707 1.98-7.453 1.991-2.746-.012-5.466-.707-7.516-1.972-4.795-2.959-11.991-8.964-16.426-18.433-4.012-8.567-3.99-23.178-3.962-25.383.009-1.114.927-2.21 2.009-2.463 3.412-.199 9.777-.334 13.046 1.03 3.74 1.56 7.113 4.943 8.486 10.696h.005c-.001.007-.005.013-.005.02 0 .155.128.28.286.28a.283.283 0 0 0 .285-.28c0-.014-.006-.027-.008-.04h.008c-.263-4.215-1.655-9.206-7.49-12.234-2.776-1.442-6.266-1.92-9.328-2 1.06-1.38 1.293-3.663 1.295-5.324l.002.002s-.021-.209.123-.269c.128-.054.23.033.29.1h.002c2.367 2.57 5.603 3.774 8.029 2.55 2.573-1.298 3.448-5.019 2.61-8.772l.002.003s-.02-.21.124-.27c.115-.048.207.017.269.08 1.713 2.57 4.572 4.328 7.94 4.372 3.368-.044 6.227-1.803 7.94-4.373.062-.062.154-.127.27-.079.144.06.123.27.123.27v-.002c-.836 3.752.039 7.473 2.612 8.771 2.427 1.224 5.663.02 8.03-2.55.06-.067.164-.154.292-.1.144.06.123.27.123.27l.002-.003c0 1.661.234 3.943 1.295 5.324-3.063.08-6.552.558-9.33 2-5.833 3.028-7.225 8.02-7.49 12.233h.006c-.001.007-.005.013-.005.021 0 .154.128.28.286.28a.282.282 0 0 0 .285-.28c1.374-5.753 4.746-9.137 8.487-10.697 3.264-1.36 9.616-1.229 13.03-1.03 1.043.251 1.789 1.35 1.798 2.464h-.026c.007.063.026.127.026.19v-.19c.01 3.444.123 16.874-3.998 25.641-2.232 4.748-5.74 8.973-9.04 12.204l.092 5.416c.064 2.963.325 6.494.772 9.386.607 3.938 2.964 8.155 10.807 10.451l2.035-38.752c.066-.974.81-2.16 1.77-2.636v3.274l-.046 5.348c-.152 12.147-.815 42.566-3.685 65.738a98.325 98.325 0 0 0 9.827-3.274c-.118-5.209-.356-15.523-.655-27.455 7.412 1.507 11.729 1.847 18.808 3.782 4.299 1.175 8.159 3.473 10.865 5.982 20.76-18.179 33.875-44.877 33.875-74.64 0-54.777-44.405-99.18-99.181-99.18" fill="red"/><path d="M164.567 172.082c-.919-.639-2.709-1.624-5.02-1.624H147.72v2.157h16.678c.287 0 .405-.369.17-.533M179.433 172.082c-.236.164-.118.533.169.533h16.678v-2.157h-11.826c-2.311 0-4.103.985-5.021 1.624M165.656 108.244c.212.033.342-.164.22-.342-.335-.487-1.16-1.143-2.311-1.37-1.342-.263-2.298.074-4.495.04-2.123-.032-4.094-.43-6.012-1.334-3.051-1.437-5.28-.785-6.511-.215-.2.092-.144.406.074.388 1.62-.131 2.655.27 3.944 1.224 1.342.993 4.029 2.355 5.963 2.549 1.756.175 3.62.08 5.115-.413 1.36-.451 2.616-.743 4.013-.527M187.472 109.183c1.934-.193 4.62-1.556 5.963-2.549 1.29-.954 2.325-1.354 3.945-1.223.218.018.272-.297.074-.388-1.232-.57-3.46-1.223-6.512.214-1.918.904-3.89 1.303-6.012 1.335-2.196.033-3.153-.303-4.494-.039-1.152.225-1.976.881-2.311 1.37-.122.176.007.374.219.34 1.397-.216 2.653.077 4.013.527 1.494.494 3.359.59 5.115.413M175.59 123.598c.32-.19.436-.35.42-.459.034-.209-.346-.28-.84-.108-2.548.89-3.74.894-6.341.001-.502-.17-.862-.07-.838.14-.02.108.081.257.355.417 3.11 1.82 4.217 1.818 7.244.01M165.58 132.27c.538.85 1.338 1.698 2.607 2.358 1.41.731 2.876.805 3.813.805.937 0 2.404-.074 3.813-.805 1.27-.66 2.07-1.508 2.607-2.358.274-.434.703-.9.975-1.066.172-.149.198-.305.102-.445-.119-.173-.409-.072-.409-.072-.63.256-1.847.313-2.459.132-1.334-.395-2.899-.474-3.707.236-.283.25-.584.492-.922.492-.338 0-.639-.243-.923-.492-.807-.71-2.372-.63-3.706-.236-.612.181-1.829.124-2.459-.132 0 0-.29-.1-.409.072-.097.14-.07.296.102.445.272.165.7.632.975 1.066M253.66 13.14v-2.657c1.564-.026 3.366-.199 3.337 1.46-.023 1.308-1.91 1.223-3.336 1.196m3.103.614c1.52-.11 2.398-2.128 1.289-3.373-1.08-1.213-3.238-.908-5.891-.908l-.026 7.99h.342l1.183.025v-3.47h1.525l1.604 3.418.079.052h1.657c-.456-.964-1.762-3.734-1.762-3.734" fill="red"/><path d="M255.12 19.682a6.099 6.099 0 1 1 0-12.198 6.099 6.099 0 0 1 0 12.198m0-13.145a7.046 7.046 0 0 0-7.046 7.046 7.046 7.046 0 1 0 7.046-7.046" fill="red"/><path d="M263.33 296.509h7.343v4.875h-4.91V315.554h4.91v5.895h-7.343v-24.94Zm6.436 15.729h6.603V304.7h-6.603v7.537Zm5.697 9.21v-5.894h4.909v-14.17h-4.91v-4.875h7.137v-4.24h-24.291v33.411h24.617v-4.231h-7.462ZM246.344 311.438c.697-2.423 1.533-5.807 2.235-10.3h3.647c-.21 4.056-1.076 8.413-3.1 12.38a129.73 129.73 0 0 0-2.782-2.08m8.675-.353a51.638 51.638 0 0 0 1.95-14.03h-7.834c.244-2.079.453-4.343.608-6.815h-4.872a92.79 92.79 0 0 1-.55 6.815h-4.455v4.083h3.902c-1.118 7.23-2.635 12.44-2.635 12.44s2.45 1.488 5.505 3.827c-1.687 2.132-3.83 4.05-6.537 5.611l2.776 3.914c3.016-1.756 5.498-3.9 7.486-6.448 1.377 1.233 2.736 2.571 3.934 3.974l3.498-3.534s-1.741-1.748-4.911-4.396a29.433 29.433 0 0 0 2.135-5.44M217.12 314.933v-4.073h-11.928v-4.325h-5.159v4.325h-11.592v4.073h11.592v11.337h5.16v-11.337zM61.078 296.13H79.15v1.412H61.075v8.867h4.429v-5.593H79.15v5.593h4.844v-5.593h13.718v5.593h4.429V297.542H83.995v-1.413h18.147v-3.859H61.078zM145.067 310.851h15.034v-4.292h-15.034v-9.338h16.395v-4.562H123.12v4.562h16.23v9.338h-14.87v4.292h14.87v10.491H122.08v4.506h40.421v-4.506h-17.434zM190.988 300.09h4.914v-3.468h13.64v3.468h4.915v-3.468h7.414v-4.352h-7.414v-2.029h-4.915v2.029h-13.64v-2.029h-4.914v2.029h-7.415v4.352h7.415zM68.709 311.896h7.013v-.973h-7.013v.973Zm5.77 6.173h3.307v-1.276h-3.307v1.276Zm-7.833 0h3.307v-1.276h-3.307v1.276Zm13.378-10.585h-4.302v.854H68.71v-.854h-4.302v.854h-2.913v2.585h2.913v2.657h5.545v.973H62.54v5.759h4.106v-.003h3.307v1.057h-8.458v2.914h8.458v2.032h4.526v-2.032h8.458v-2.914h-8.458v-1.057h7.413V314.553h-7.413v-.973h5.545v-2.657h2.913v-2.585h-2.913v-.854ZM89.755 313.205h7.494v-1.925h-7.494v1.925Zm-.028 4.537c.018-.437.028-.89.028-1.362v-.438h7.494v1.8h-7.522Zm-4.479-6.819h-.002v5.587c0 5.728-2.014 8.676-2.014 8.676l4.107 1.69s1.483-1.895 2.124-6.296h7.786v1.674a.546.546 0 0 1-.546.546h-1.81v3.469h4.644a2.198 2.198 0 0 0 2.198-2.197v-15.734H85.248v2.585Z" fill="#000"/><path fill="#000" d="M67.233 303.655h10.396v-1.882H67.233zM67.233 306.409h10.396v-1.948H67.233zM85.552 303.655h10.396v-1.882H85.552zM85.552 306.409h10.396v-1.948H85.552zM202.78 297.934h-2.116s-6.51 6.152-18.99 9.757l2.045 4.357s10.987-2.927 19.06-9.844c8.074 6.917 19.06 9.844 19.06 9.844l2.047-4.357c-12.481-3.605-18.99-9.757-18.99-9.757h-2.116ZM184.577 321.776l2.162 4.008s4.818-1.79 11.36-6.38l-2.767-3.755c-5.966 4.384-10.755 6.127-10.755 6.127M207.742 319.551s2.807 1.197 10.652 6.302l2.307-4.002c-5.078-3.392-10.8-5.96-10.8-5.96l-2.159 3.66Z"/></g></svg>